# Blender v2.79 (sub 0) OBJ File: 'prize.blend'
# www.blender.org
mtllib prize.mtl
o Cube
v 0.250000 0.250000 -0.250000
v 0.250000 -0.250000 -0.250000
v -0.250000 -0.250000 -0.250000
v -0.250000 0.250000 -0.250000
v 0.116493 0.116493 0.250000
v 0.116493 -0.116493 0.250000
v -0.116493 -0.116493 0.250000
v -0.116493 0.116493 0.250000
vt 0.666667 0.000000
vt 1.000000 0.000000
vt 1.000000 0.483076
vt 0.666667 0.483076
vt 0.821991 0.500000
vt 0.821991 0.725100
vt 0.666667 0.725100
vt 0.666667 0.500000
vt 0.333333 0.500000
vt 0.422338 0.000000
vt 0.577662 0.000000
vt 0.666667 0.500000
vt 0.000000 1.000000
vt 0.089004 0.500000
vt 0.244329 0.500000
vt 0.333333 1.000000
vt 0.000000 0.500000
vt 0.089004 0.000000
vt 0.244329 0.000000
vt 0.333333 0.500000
vt 0.577662 0.500000
vt 0.666667 1.000000
vt 0.333333 1.000000
vt 0.422338 0.500000
vn 0.0000 0.0000 -1.0000
vn 0.0000 0.0000 1.0000
vn 0.9662 -0.0000 0.2580
vn -0.0000 -0.9662 0.2580
vn -0.9662 0.0000 0.2580
vn 0.0000 0.9662 0.2580
usemtl Material.001
s off
f 1/1/1 2/2/1 3/3/1 4/4/1
f 5/5/2 8/6/2 7/7/2 6/8/2
f 1/9/3 5/10/3 6/11/3 2/12/3
f 2/13/4 6/14/4 7/15/4 3/16/4
f 3/17/5 7/18/5 8/19/5 4/20/5
f 5/21/6 1/22/6 4/23/6 8/24/6
